<?xml version="1.0" encoding="utf-8"?>
<!-- Generator: Adobe Illustrator 16.0.0, SVG Export Plug-In . SVG Version: 6.00 Build 0)  -->
<!DOCTYPE svg PUBLIC "-//W3C//DTD SVG 1.1//EN" "http://www.w3.org/Graphics/SVG/1.1/DTD/svg11.dtd" [
	<!ENTITY ns_flows "http://ns.adobe.com/Flows/1.0/">
	<!ENTITY ns_extend "http://ns.adobe.com/Extensibility/1.0/">
	<!ENTITY ns_ai "http://ns.adobe.com/AdobeIllustrator/10.0/">
	<!ENTITY ns_graphs "http://ns.adobe.com/Graphs/1.0/">
]>
<svg version="1.1" id="Layer_1" xmlns:x="&ns_extend;" xmlns:i="&ns_ai;" xmlns:graph="&ns_graphs;"
	 xmlns="http://www.w3.org/2000/svg" xmlns:xlink="http://www.w3.org/1999/xlink" xmlns:a="http://ns.adobe.com/AdobeSVGViewerExtensions/3.0/"
	 x="0px" y="0px" width="1064.176px" height="850.133px" viewBox="0 0 1064.176 850.133"
	 enable-background="new 0 0 1064.176 850.133" xml:space="preserve">
<g id="Layer_1_1_" display="none">
	<g display="inline">
		<path fill="#595FE9" d="M994.875,0c1.67,22.91,3.338,45.819,5.014,68.729c0.898,12.285,1.748,24.573,2.756,36.849
			c0.281,3.416-0.198,6.448-1.746,9.586c-35.942,72.983-71.778,146.02-107.752,218.988c-1.723,3.486-1.668,6.132,0.164,9.563
			c56.375,105.717,112.625,211.5,169.011,317.211c1.895,3.556,2.127,6.388,0.68,10.169c-25.9,67.725-51.666,135.497-77.354,203.301
			c-1.201,3.175-2.523,4.116-6.082,3.775c-32.793-3.139-65.615-6.003-98.427-8.979c-1.696-0.154-3.254,0.056-4.891,0.544
			c-83.031,24.794-166.074,49.549-249.111,74.327c-0.442,0.133-0.809,0.537-1.211,0.813c-1,0-2,0-3,0
			c-0.903-1.2-2.383-1.129-3.606-1.497c-56.414-16.913-112.854-33.753-169.258-50.697c-5.936-1.78-11.621-2.843-18.019-2.055
			c-30.711,3.782-61.492,7.002-92.241,10.478c-38.053,4.299-76.1,8.644-114.148,12.979c-30.925,3.525-61.844,7.096-92.771,10.601
			c-24.794,2.813-49.602,5.511-74.395,8.337c-19.501,2.224-38.989,4.565-58.483,6.856C0,626.589,0,313.294,0,0
			C331.625,0,663.25,0,994.875,0z"/>
	</g>
	<g display="inline">
		<path fill="#595FE9" d="M994.875,1823c1.67-25.219,3.338-50.438,5.014-75.656c0.898-13.521,1.748-27.05,2.756-40.563
			c0.281-3.76-0.198-7.101-1.746-10.553c-35.942-80.342-71.778-160.736-107.752-241.063c-1.723-3.841-1.668-6.75,0.164-10.53
			c56.375-116.373,112.625-232.815,169.011-349.184c1.895-3.911,2.127-7.028,0.68-11.193c-25.9-74.548-51.666-149.151-77.354-223.79
			c-1.201-3.494-2.523-4.531-6.082-4.156c-32.793,3.453-65.615,6.606-98.427,9.886c-1.696,0.17-3.254-0.063-4.891-0.602
			c-83.031-27.293-166.074-54.543-249.111-81.816c-0.442-0.146-0.809-0.592-1.211-0.898c-1,0-2,0-3,0
			c-0.903,1.321-2.383,1.243-3.606,1.647c-56.414,18.617-112.854,37.152-169.258,55.809c-5.936,1.962-11.621,3.128-18.019,2.261
			c-30.711-4.163-61.492-7.708-92.241-11.527c-38.053-4.732-76.1-9.518-114.148-14.29c-30.925-3.881-61.844-7.813-92.771-11.668
			c-24.794-3.097-49.602-6.063-74.395-9.178c-19.501-2.445-38.989-5.026-58.483-7.551C0,1133.256,0,1478.129,0,1823
			C331.625,1823,663.25,1823,994.875,1823z"/>
	</g>
	<g display="inline">
		<path fill="#FEC070" d="M1970,872.106c-65.9,13.291-131.803,26.571-197.701,39.877c-60.906,12.295-121.813,24.6-182.707,36.957
			c-3.35,0.678-6.295,0.462-9.479-1.019c-56.994-26.454-114.031-52.809-171.064-79.179c-9.977-4.612-19.994-9.144-29.932-13.837
			c-2.525-1.194-4.84-1.27-7.558-0.674c-67.756,14.817-135.543,29.509-203.286,44.369c-6.656,1.463-13.074,0.139-19.55-0.397
			c-24.014-1.991-48.008-4.271-72.01-6.458c-24-2.188-47.996-4.421-72-6.576c-23.516-2.111-47.043-4.123-70.559-6.229
			c-16.49-1.479-32.979-3.021-49.459-4.598c-3.304-0.313-6.47-0.229-9.709,0.74c-82.023,24.557-164.066,49.043-246.091,73.604
			c-3.139,0.938-5.985,0.814-9.106-0.123c-58.113-17.485-116.278-34.801-174.342-52.442c-5.897-1.791-11.395-0.82-16.992-0.191
			c-47.729,5.359-95.438,10.923-143.157,16.374c-46.093,5.271-92.189,10.501-138.289,15.71
			c-47.727,5.396-95.459,10.738-143.186,16.131c-1.291,0.146-2.552,0.562-3.825,0.853c0-1.971,0-3.939,0-5.91
			c43.665-4.951,87.333-9.877,130.995-14.856c39.1-4.462,78.186-9.026,117.287-13.466c41.872-4.754,83.758-9.385,125.632-14.119
			c21.179-2.396,42.349-4.881,63.514-7.4c2.727-0.324,5.181,0.321,7.706,1.079c58.455,17.53,116.921,35.021,175.361,52.599
			c2.811,0.849,5.313,0.792,8.107-0.046c80.782-24.178,161.61-48.211,242.348-72.547c6.953-2.096,13.594-1.504,20.393-0.904
			c39.857,3.517,79.709,7.111,119.56,10.73c38.217,3.473,76.426,7.012,114.643,10.506c11.431,1.043,22.859,2.084,34.299,3.022
			c6.521,0.537,12.638-1.813,18.849-3.157c64.276-13.904,128.524-27.947,192.771-42.021c3.379-0.739,6.318-0.399,9.474,1.063
			c56.411,26.172,112.862,52.26,169.313,78.354c10.574,4.892,21.191,9.688,31.732,14.642c2.354,1.105,4.502,1.266,7.078,0.742
			c87.271-17.684,174.563-35.278,261.854-52.891c38.428-7.752,76.854-15.502,115.277-23.264c1.281-0.262,2.545-0.634,3.813-0.955
			C1970,868.165,1970,870.136,1970,872.106z"/>
	</g>
</g>
<path fill="#595FE9" d="M0,937.883C0,625.255,0,312.628,0,0c331.625,0,663.25,0,994.875,0c0.65,8.131,1.354,16.259,1.939,24.395
	c1.953,27.064,3.832,54.135,5.83,81.196c0.252,3.418-0.209,6.45-1.757,9.586c-35.577,72.246-71.01,144.566-106.721,216.748
	c-2.584,5.229-2.428,8.959,0.297,14.061c56.299,105.396,112.375,210.909,168.578,316.357c1.396,2.621,1.459,4.731,0.424,7.436
	c-11.729,30.592-23.369,61.221-35.002,91.852c-14.582,38.402-29.139,76.813-43.705,115.219c-1.664-0.014-3.338,0.086-4.987-0.059
	c-31.175-2.729-62.349-5.438-93.509-8.277c-5.92-0.54-11.608,0.126-17.248,1.791c-78.93,23.343-157.862,46.656-236.768,70.088
	c-5.32,1.579-10.232,1.657-15.601,0.058c-57.041-17.024-114.135-33.871-171.207-50.792c-2.575-0.767-5.18-1.462-7.844-1.189
	c-8.439,0.863-16.867,1.884-25.301,2.837c-28.44,3.214-56.88,6.438-85.322,9.637c-25.632,2.883-51.274,5.687-76.9,8.619
	c-20.539,2.354-41.05,4.941-61.592,7.267c-20.33,2.297-40.689,4.346-61.026,6.587c-25.305,2.787-50.604,5.638-75.899,8.507
	C34.37,933.861,17.187,935.89,0,937.883z"/>
<path fill="#595FE9" d="M-13.219,1773.959c0-312.628,0-625.255,0-937.883c331.625,0,663.25,0,994.875,0
	c0.649,8.131,1.354,16.259,1.938,24.395c1.953,27.064,3.832,54.137,5.83,81.196c0.252,3.418-0.209,6.45-1.756,9.586
	c-35.578,72.246-71.01,144.566-106.721,216.748c-2.584,5.228-2.429,8.959,0.297,14.06
	c56.299,105.396,112.375,210.91,168.578,316.358c1.396,2.621,1.459,4.731,0.424,7.436c-11.73,30.592-23.369,61.221-35.002,91.852
	c-14.582,38.402-29.14,76.813-43.705,115.219c-1.664-0.014-3.338,0.087-4.988-0.059c-31.174-2.729-62.348-5.438-93.508-8.277
	c-5.92-0.54-11.609,0.126-17.248,1.791c-78.93,23.343-157.863,46.656-236.768,70.089c-5.32,1.578-10.232,1.656-15.601,0.057
	c-57.041-17.024-114.135-33.871-171.208-50.792c-2.575-0.767-5.179-1.462-7.843-1.189c-8.439,0.863-16.868,1.885-25.301,2.837
	c-28.44,3.215-56.88,6.438-85.322,9.637c-25.632,2.883-51.274,5.687-76.9,8.62c-20.539,2.354-41.05,4.94-61.592,7.266
	c-20.33,2.297-40.689,4.346-61.026,6.587c-25.305,2.787-50.604,5.638-75.899,8.507C21.151,1769.938,3.968,1771.966-13.219,1773.959z
	"/>
</svg>
