<?xml version="1.0" encoding="utf-8"?>
<!-- Generator: Adobe Illustrator 16.0.0, SVG Export Plug-In . SVG Version: 6.00 Build 0)  -->
<!DOCTYPE svg PUBLIC "-//W3C//DTD SVG 1.1//EN" "http://www.w3.org/Graphics/SVG/1.1/DTD/svg11.dtd" [
	<!ENTITY ns_flows "http://ns.adobe.com/Flows/1.0/">
	<!ENTITY ns_extend "http://ns.adobe.com/Extensibility/1.0/">
	<!ENTITY ns_ai "http://ns.adobe.com/AdobeIllustrator/10.0/">
	<!ENTITY ns_graphs "http://ns.adobe.com/Graphs/1.0/">
]>
<svg version="1.1" id="Layer_2" xmlns:x="&ns_extend;" xmlns:i="&ns_ai;" xmlns:graph="&ns_graphs;"
	 xmlns="http://www.w3.org/2000/svg" xmlns:xlink="http://www.w3.org/1999/xlink" xmlns:a="http://ns.adobe.com/AdobeSVGViewerExtensions/3.0/"
	 x="0px" y="0px" width="35.08px" height="37.624px" viewBox="0 0 35.08 37.624" enable-background="new 0 0 35.08 37.624"
	 xml:space="preserve">
<g>
	<path fill="#FFFFFF" d="M35.08,11.382c0,3.437-0.96,6.002-2.879,7.698c-1.337,1.162-2.721,2.009-4.15,2.545
		c-0.981,0.358-2.722,0.759-5.221,1.205l-11.716,2.075c0.58,1.563,1.74,2.589,3.481,3.08c0.981,0.268,2.633,0.402,4.954,0.402
		c2.143,0,4.396-0.112,6.762-0.336l4.418-0.268c1.161-0.089,1.875,0.604,2.142,2.077l0.134,3.212
		c0.089,2.321-1.138,3.682-3.682,4.084c-2.008,0.311-5.625,0.468-10.845,0.468c-6.382,0-11.058-1.583-14.025-4.753
		C1.483,29.702,0,24.904,0,18.478C0,12.096,1.439,7.421,4.318,4.453C7.196,1.483,11.806,0,18.143,0
		C29.434,0,35.08,3.795,35.08,11.382z M24.838,11.516c0-1.875-2.054-2.813-6.16-2.813c-3.168,0-5.332,0.537-6.492,1.609
		c-1.162,1.074-1.787,3.175-1.875,6.303l9.104-1.68c2.186-0.401,3.547-0.736,4.083-1.006C24.392,13.484,24.838,12.68,24.838,11.516z
		"/>
</g>
</svg>
