<?xml version="1.0" encoding="utf-8"?>
<!-- Generator: Adobe Illustrator 16.0.0, SVG Export Plug-In . SVG Version: 6.00 Build 0)  -->
<!DOCTYPE svg PUBLIC "-//W3C//DTD SVG 1.1//EN" "http://www.w3.org/Graphics/SVG/1.1/DTD/svg11.dtd" [
	<!ENTITY ns_flows "http://ns.adobe.com/Flows/1.0/">
	<!ENTITY ns_extend "http://ns.adobe.com/Extensibility/1.0/">
	<!ENTITY ns_ai "http://ns.adobe.com/AdobeIllustrator/10.0/">
	<!ENTITY ns_graphs "http://ns.adobe.com/Graphs/1.0/">
]>
<svg version="1.1" id="Layer_1" xmlns:x="&ns_extend;" xmlns:i="&ns_ai;" xmlns:graph="&ns_graphs;"
	 xmlns="http://www.w3.org/2000/svg" xmlns:xlink="http://www.w3.org/1999/xlink" xmlns:a="http://ns.adobe.com/AdobeSVGViewerExtensions/3.0/"
	 x="0px" y="0px" width="1970px" height="102px" viewBox="0 0 1970 102" enable-background="new 0 0 1970 102" xml:space="preserve"
	>
<g opacity="0.5">
	<path fill-rule="evenodd" clip-rule="evenodd" fill="#FEC070" d="M1969.988,24.748c-65.9,13.292-131.802,26.575-197.701,39.877
		c-60.906,12.295-121.813,24.6-182.707,36.957c-3.349,0.678-6.295,0.462-9.478-1.016c-56.994-26.454-114.032-52.808-171.065-79.179
		c-9.977-4.613-19.994-9.141-29.931-13.837c-2.526-1.194-4.841-1.267-7.555-0.673c-67.756,14.819-135.544,29.508-203.289,44.371
		c-6.656,1.46-13.075,0.136-19.547-0.4c-24.015-1.992-48.008-4.271-72.011-6.458c-23.999-2.187-47.996-4.421-71.999-6.577
		c-23.517-2.112-47.043-4.123-70.56-6.231c-16.491-1.478-32.977-3.02-49.458-4.594c-3.302-0.314-6.468-0.231-9.71,0.739
		C792.956,52.285,710.913,76.771,628.89,101.33c-3.137,0.938-5.987,0.816-9.109-0.124c-58.112-17.485-116.277-34.798-174.342-52.442
		c-5.897-1.792-11.391-0.821-16.992-0.192c-47.729,5.36-95.438,10.922-143.157,16.375c-46.093,5.269-92.19,10.501-138.289,15.71
		C99.274,86.051,51.542,91.395,3.815,96.785c-1.291,0.145-2.551,0.561-3.825,0.852c0-1.971,0-3.939,0-5.91
		c43.665-4.951,87.333-9.877,130.996-14.859c39.099-4.461,78.186-9.026,117.287-13.464c41.873-4.753,83.758-9.384,125.632-14.12
		c21.179-2.396,42.349-4.879,63.514-7.402c2.724-0.324,5.178,0.321,7.707,1.08c58.455,17.531,116.921,35.024,175.361,52.598
		c2.811,0.847,5.313,0.792,8.108-0.046c80.784-24.178,161.611-48.21,242.347-72.547c6.952-2.096,13.593-1.503,20.392-0.904
		c39.858,3.513,79.709,7.111,119.558,10.729c38.216,3.473,76.426,7.013,114.642,10.506c11.43,1.044,22.86,2.084,34.3,3.026
		c6.519,0.537,12.636-1.817,18.847-3.161c64.278-13.903,128.526-27.947,192.771-42.02c3.378-0.739,6.317-0.401,9.472,1.062
		c56.413,26.171,112.864,52.259,169.311,78.356c10.574,4.89,21.192,9.685,31.733,14.64c2.355,1.107,4.502,1.265,7.077,0.744
		c87.273-17.684,174.566-35.281,261.854-52.891c38.427-7.752,76.853-15.502,115.276-23.264c1.284-0.259,2.545-0.633,3.816-0.955
		C1969.988,20.806,1969.988,22.778,1969.988,24.748z"/>
</g>
</svg>
