<?xml version="1.0" encoding="utf-8"?>
<!-- Generator: Adobe Illustrator 16.0.0, SVG Export Plug-In . SVG Version: 6.00 Build 0)  -->
<!DOCTYPE svg PUBLIC "-//W3C//DTD SVG 1.1//EN" "http://www.w3.org/Graphics/SVG/1.1/DTD/svg11.dtd" [
	<!ENTITY ns_flows "http://ns.adobe.com/Flows/1.0/">
	<!ENTITY ns_extend "http://ns.adobe.com/Extensibility/1.0/">
	<!ENTITY ns_ai "http://ns.adobe.com/AdobeIllustrator/10.0/">
	<!ENTITY ns_graphs "http://ns.adobe.com/Graphs/1.0/">
]>
<svg version="1.1" id="Layer_1" xmlns:x="&ns_extend;" xmlns:i="&ns_ai;" xmlns:graph="&ns_graphs;"
	 xmlns="http://www.w3.org/2000/svg" xmlns:xlink="http://www.w3.org/1999/xlink" xmlns:a="http://ns.adobe.com/AdobeSVGViewerExtensions/3.0/"
	 x="0px" y="0px" width="20px" height="100px" viewBox="0 0 20 100" enable-background="new 0 0 20 100" xml:space="preserve">
<path id="icon" fill="#606584" d="M10.005,0C4.488,0,0,4.488,0,10.004v12.084c0,5.516,4.488,10.004,10.005,10.004
	s10.004-4.488,10.004-10.004V10.004C20.009,4.488,15.521,0,10.005,0L10.005,0z M18.81,10.004v0.158
	c-2.582,1.358-5.471,2.102-8.406,2.164V8.981c0.847-0.184,1.483-0.938,1.483-1.839V4.634c0-0.9-0.636-1.655-1.483-1.838V1.208
	C15.075,1.418,18.81,5.283,18.81,10.004L18.81,10.004z M10.005,3.552c0.596,0,1.082,0.486,1.082,1.082v2.508
	c0,0.597-0.486,1.083-1.082,1.083c-0.597,0-1.083-0.485-1.083-1.083V4.634C8.922,4.038,9.408,3.552,10.005,3.552L10.005,3.552z
	 M9.604,1.208v1.587C8.759,2.98,8.123,3.734,8.123,4.634v2.508c0,0.9,0.636,1.655,1.482,1.839v3.345
	C6.67,12.264,3.782,11.52,1.2,10.162v-0.158C1.2,5.283,4.934,1.419,9.604,1.208L9.604,1.208z M10.005,30.894
	c-4.855,0-8.805-3.95-8.805-8.805V11.061c2.719,1.355,5.745,2.069,8.805,2.069c3.061,0,6.085-0.713,8.805-2.069v11.028
	C18.81,26.944,14.859,30.894,10.005,30.894L10.005,30.894z M10.005,30.894"/>
<path id="icon_1_" fill="#FFFFFF" d="M10.005,67.906C4.488,67.906,0,72.395,0,77.91v12.085C0,95.512,4.488,100,10.005,100
	s10.004-4.488,10.004-10.005V77.91C20.009,72.395,15.521,67.906,10.005,67.906L10.005,67.906z M18.81,77.91v0.158
	c-2.582,1.357-5.471,2.102-8.406,2.164v-3.346c0.847-0.184,1.483-0.938,1.483-1.838V72.54c0-0.899-0.636-1.655-1.483-1.839v-1.586
	C15.075,69.324,18.81,73.189,18.81,77.91L18.81,77.91z M10.005,71.458c0.596,0,1.082,0.485,1.082,1.082v2.509
	c0,0.597-0.486,1.082-1.082,1.082c-0.597,0-1.083-0.485-1.083-1.082V72.54C8.922,71.943,9.408,71.458,10.005,71.458L10.005,71.458z
	 M9.604,69.115v1.586c-0.846,0.186-1.482,0.939-1.482,1.839v2.509c0,0.9,0.636,1.654,1.482,1.838v3.346
	C6.67,80.17,3.782,79.426,1.2,78.068V77.91C1.2,73.189,4.934,69.325,9.604,69.115L9.604,69.115z M10.005,98.8
	c-4.855,0-8.805-3.95-8.805-8.805V78.967c2.719,1.355,5.745,2.069,8.805,2.069c3.061,0,6.085-0.714,8.805-2.069v11.028
	C18.81,94.85,14.859,98.8,10.005,98.8L10.005,98.8z M10.005,98.8"/>
</svg>
